:SAMPLES-PER-SECOND 30
:FULLY-SPECIFIED
:DEGREES
446
root  28.4321 37.7652 -32.6211 0.335815 61.3962 -0.709961
RightUpLeg  -10.5177 7.82417 -21.2361
RightLeg  20.6959 9.89415 3.90469
RightFoot  -5.29887 -0.839323 15.6642
RightToes  -8.14909e-010 0 -3.6325e-017
Spine  14.6556 1.65988 6.41619
Spine1  3.46676 3.39837 -4.95839
HEad  -9.06374 -6.33258 -4.44966
LeftShoulder1  -0.422054 4.63718 -31.095
LeftArm  4.97342 17.3962 -38.69
LeftForeArm  15.6229 -27.4373 -5.07074
LeftHand  -0.00682187 5.85318 4.80492
RightShoulder  -0.77821 -5.74513 28.0913
RightArm  8.25045 3.94176 40.4061
RightForeArm  14.4699 34.2205 6.80498
RightHand  -0.117067 4.01776 -1.7129
LeftUpLeg  -19.6318 7.43158 13.8508
LeftLeg  30.0593 -10.2792 -6.03402
LeftFoot  -2.07276 0.89873 -10.9092
LeftToes  1.648e-009 -9.21574e-011 2.55256e-011
447
root  27.5609 37.392 -31.7066 1.78925 62.796 1.42157
RightUpLeg  -11.6052 7.01456 -20.7096
RightLeg  24.5542 9.33658 4.41502
RightFoot  -9.61097 -0.375482 18.7297
RightToes  -8.14909e-010 0 -3.6325e-017
Spine  14.7874 1.55913 5.98407
Spine1  3.7594 3.26285 -5.09773
HEad  -7.17157 -6.99307 -4.58354
LeftShoulder1  -0.446157 4.69484 -31.3212
LeftArm  6.09961 18.5719 -37.9533
LeftForeArm  14.9381 -27.404 -5.10067
LeftHand  0.000563037 6.06501 4.86571
RightShoulder  -0.818869 -5.84962 28.2982
RightArm  7.70303 4.98577 40.2317
RightForeArm  14.6424 35.2094 7.06204
RightHand  -0.133353 3.45539 -1.97091
LeftUpLeg  -19.9041 6.88771 14.7443
LeftLeg  29.4594 -11.2818 -6.47713
LeftFoot  -1.57051 1.05592 -12.2038
LeftToes  1.648e-009 -9.21574e-011 2.55256e-011
448
root  26.5903 37.2115 -30.8044 2.5564 65.1676 2.8139
RightUpLeg  -12.2277 4.34155 -19.1876
RightLeg  28.0193 8.56527 4.69519
RightFoot  -12.8412 0.111314 14.9053
RightToes  -8.14909e-010 0 -3.6325e-017
Spine  15.161 1.27062 6.89066
Spine1  4.06751 3.08073 -4.80937
HEad  -6.80506 -7.80329 -5.07556
LeftShoulder1  -0.410933 4.59196 -31.6328
LeftArm  5.97975 19.1998 -37.0947
LeftForeArm  17.1488 -27.8229 -5.07533
LeftHand  -0.00537452 6.09772 3.78366
RightShoulder  -0.833193 -5.89626 28.2257
RightArm  6.7412 5.41676 40.5259
RightForeArm  13.7763 35.791 7.27471
RightHand  -0.21956 4.31998 -2.91253
LeftUpLeg  -19.518 5.94146 15.8331
LeftLeg  26.324 -12.5344 -6.36378
LeftFoot  0.359095 1.36274 -13.2619
LeftToes  1.648e-009 -9.21574e-011 2.55256e-011
449
root  25.5544 37.2773 -29.8987 3.07843 68.2887 3.65619
RightUpLeg  -12.0426 0.039296 -17.2622
RightLeg  29.171 8.38592 4.81209
RightFoot  -13.8435 0.155844 11.2859
RightToes  -8.14909e-010 0 -3.6325e-017
Spine  15.7161 0.658932 8.90669
Spine1  4.07522 2.85847 -5.33096
HEad  -6.20262 -9.01384 -5.30476
LeftShoulder1  -0.390326 4.524 -32.0942
LeftArm  4.31937 19.6066 -36.5857
LeftForeArm  21.4226 -28.585 -5.01445
LeftHand  -0.0120531 6.07807 3.03893
RightShoulder  -0.796485 -5.81013 27.8849
RightArm  6.26912 5.52053 40.8711
RightForeArm  14.2575 35.6276 7.1999
RightHand  -0.158996 4.29446 -2.18707
LeftUpLeg  -18.6838 4.691 16.7212
LeftLeg  20.4955 -13.3293 -4.97655
LeftFoot  4.72923 1.95069 -13.9284
LeftToes  1.648e-009 -9.21574e-011 2.55256e-011
450
root  24.4726 37.4986 -29.0114 5.83887 70.6712 5.67352
RightUpLeg  -13.0952 -4.02633 -15.9209
RightLeg  29.1256 8.99633 5.16405
RightFoot  -13.5657 0.083614 8.9629
RightToes  -8.14909e-010 0 -3.6325e-017
Spine  15.531 0.705317 9.41223
Spine1  3.68438 2.83777 -4.97072
HEad  -6.4848 -9.68592 -4.77555
LeftShoulder1  -0.449406 4.66008 -32.7265
LeftArm  3.78525 19.7274 -36.5329
LeftForeArm  22.996 -28.824 -4.98266
LeftHand  -0.0157076 6.11919 2.51184
RightShoulder  -0.691625 -5.54677 27.1837
RightArm  8.32904 6.01871 40.6987
RightForeArm  12.51 34.1084 6.89475
RightHand  -0.178478 3.9796 -2.47763
LeftUpLeg  -17.6314 6.95213 15.8918
LeftLeg  11.8619 -13.7997 -2.08718
LeftFoot  11.794 2.65968 -13.4316
LeftToes  1.648e-009 -9.21574e-011 2.55256e-011
